<svg xmlns="http://www.w3.org/2000/svg" width="207" height="50" viewBox="0 0 207 50" fill="none">
<path fill="#00A775" d="M25 0H0v25h25V0z"/>
<path fill="#38C660" d="M50 0H25v25h25V0z"/>
<path fill="#00A775" d="M50 25H25v25h25V25z"/>
<path fill="#16705A" d="M25 25H0v25h25V25z"/>
<g>
	<path fill="#00A775" d="M64,33.9v-1.6h9.5c1.2,0,1.7-0.6,1.7-1.8V28c0-1-0.4-1.6-1.3-1.8l-6.4-1.4C65.2,24.4,64,22.8,64,20v-1.7
		c0-3.3,1.6-5,4.8-5h7.3l1.6,1.3v1.6h-8.8c-1.2,0-1.7,0.6-1.7,1.8v2.2c0,1,0.4,1.6,1.3,1.8l6.4,1.3c2.3,0.5,3.4,2.1,3.4,4.8v2.1
		c0,3.3-1.6,5-4.8,5h-7.9L64,33.9z"/>
	<path fill="#00A775" d="M82.5,30.2V18.3c0-3.3,1.6-5,4.8-5h7.1c3.2,0,4.8,1.7,4.8,5v11.8c0,3.3-1.6,5-4.8,5h-7.1
		C84.1,35.2,82.5,33.5,82.5,30.2z M85.6,30.5c0,1.2,0.6,1.8,1.7,1.8h7.1c1.2,0,1.7-0.6,1.7-1.8V18c0-1.2-0.6-1.8-1.7-1.8h-7.1
		c-1.2,0-1.7,0.6-1.7,1.8V30.5z"/>
	<path fill="#00A775" d="M104.3,35.2V13.3h3.1v18.9h10v2.9H104.3z"/>
	<path fill="#00A775" d="M116.9,14l0.4-0.7h2.7l5.6,18.9h0.6l5.6-18.9h2.7L135,14l-6.5,21.2h-5.2L116.9,14z"/>
</g>
<g>
	<path fill="#16705A" d="M137.8,35.2V13.3h14.4v2.9H141v6.1h10.3v2.9H141v7h11.2v2.9H137.8z"/>
	<path fill="#16705A" d="M156.7,35.2V13.3h3.5l10.7,16.8V13.3h3.2v21.9h-3.5l-10.7-16.8v16.8H156.7z"/>
	<path fill="#16705A" d="M177.6,16.2v-2.9H195v2.9h-7.1v18.9h-3.2V16.2H177.6z"/>
</g>
</svg>
